<svg xmlns="http://www.w3.org/2000/svg" width="1600" height="527" viewBox="0 0 1600 527" fill="none">
	<path d="M 145.313 70.32 L 157.031 70.32 L 157.031 1.961 A 22.702 22.702 0 0 0 153.304 2.241 Q 147.314 3.243 146.094 7.82 Q 145.313 10.555 145.313 15.242 A 124.196 124.196 0 0 0 94.555 0.458 A 150.922 150.922 0 0 0 82.813 0.008 A 121.949 121.949 0 0 0 56.164 2.746 Q 38.157 6.778 24.899 16.747 A 72.582 72.582 0 0 0 17.188 23.445 A 53.764 53.764 0 0 0 1.562 61.727 A 53.191 53.191 0 0 0 18.918 101.12 Q 26.067 108.055 36.161 114.019 A 121.009 121.009 0 0 0 38.281 115.242 Q 43.954 118.245 72.428 130.654 A 4819.922 4819.922 0 0 0 82.813 135.164 A 215.863 215.863 0 0 1 98.779 143.001 Q 120.313 154.793 127.344 166.805 Q 132.422 175.789 132.422 186.336 A 43.444 43.444 0 0 1 128.706 204.659 Q 124.139 214.61 113.958 221.341 A 59.126 59.126 0 0 1 105.859 225.789 A 65.577 65.577 0 0 1 85.571 230.916 A 79.577 79.577 0 0 1 78.125 231.258 A 71.385 71.385 0 0 1 48.884 225.245 Q 19.384 211.623 12.788 167.18 A 162.25 162.25 0 0 1 11.719 158.211 L 0 158.211 L 0 239.07 Q 7.612 239.07 10.074 235.465 A 6.394 6.394 0 0 0 10.938 233.602 Q 11.692 230.584 11.718 222.829 A 166.816 166.816 0 0 0 11.719 222.274 Q 41.797 242.195 80.078 242.195 A 133.581 133.581 0 0 0 107.968 239.462 Q 133.267 234.059 149.609 217.977 Q 166.406 200.789 166.406 176.961 Q 166.406 142.195 128.906 121.102 Q 122.55 117.756 93.559 104.956 A 4915.093 4915.093 0 0 0 83.203 100.399 A 207.225 207.225 0 0 1 67.432 92.928 Q 46.191 81.649 39.453 69.93 Q 34.766 61.336 34.766 51.57 A 41.243 41.243 0 0 1 37.631 35.794 Q 43.295 21.987 60.156 15.242 A 62.24 62.24 0 0 1 76.893 11.304 A 76.277 76.277 0 0 1 84.375 10.945 A 76.931 76.931 0 0 1 105.087 13.576 A 54.542 54.542 0 0 1 134.375 33.211 A 55.135 55.135 0 0 1 144.714 59.323 Q 145.415 64.594 145.313 70.32 Z" id="0" fill="white" />
	<path d="M 201.563 238.289 L 305.469 238.289 A 17.752 17.752 0 0 0 305.17 234.885 Q 304.102 229.439 299.219 228.524 Q 297.266 228.133 295.313 228.133 L 266.406 228.133 L 266.406 134.774 L 300.781 134.774 Q 335.19 134.774 357.09 124.293 A 63.011 63.011 0 0 0 385.547 98.445 A 57.614 57.614 0 0 0 393.299 74.992 A 72.661 72.661 0 0 0 393.75 66.805 Q 393.75 30.598 364.303 14.594 A 74.295 74.295 0 0 0 360.156 12.508 A 84.275 84.275 0 0 0 339.08 5.802 Q 329.701 4.062 319.009 3.926 A 143.227 143.227 0 0 0 317.188 3.914 L 201.563 3.914 L 201.563 14.07 L 232.813 14.07 L 232.813 228.133 L 201.563 228.133 L 201.563 238.289 Z M 266.406 14.07 L 308.984 14.07 A 58.432 58.432 0 0 1 326.539 16.525 Q 346.597 22.829 353.906 45.32 A 71.457 71.457 0 0 1 356.86 61.788 A 83.979 83.979 0 0 1 357.031 67.195 Q 357.031 117.977 311.719 123.055 Q 307.031 123.445 302.344 123.445 L 266.406 123.445 L 266.406 14.07 Z" id="1" fill="white" />
	<path d="M 595.313 74.227 L 603.125 74.227 L 601.172 3.914 L 421.094 3.914 L 421.094 14.07 L 452.344 14.07 L 452.344 228.133 L 421.094 228.133 L 421.094 238.289 L 601.172 238.289 L 603.125 167.977 L 595.313 167.977 L 589.844 186.336 A 112.863 112.863 0 0 1 584.375 201.277 Q 576.838 217.809 565.67 224.052 A 29.504 29.504 0 0 1 560.938 226.18 Q 555.078 228.133 548.438 228.133 L 485.938 228.133 L 485.938 123.055 L 566.406 123.055 L 566.406 111.727 L 485.938 111.727 L 485.938 14.07 L 548.438 14.07 Q 573.464 14.07 585.809 44.072 A 103.688 103.688 0 0 1 588.672 51.961 A 86.372 86.372 0 0 1 589.038 53.084 Q 589.517 54.588 589.804 55.71 A 28.487 28.487 0 0 1 589.844 55.867 L 595.313 74.227 Z" id="2" fill="white" />
	<path d="M 800 3.914 L 800 14.07 L 833.203 14.07 L 833.203 189.07 L 684.766 3.914 L 630.469 3.914 L 630.469 14.07 L 661.719 14.07 L 661.719 228.133 L 630.469 228.133 L 630.469 238.289 L 710.547 238.289 A 17.752 17.752 0 0 0 710.248 234.885 Q 709.18 229.439 704.297 228.524 Q 702.344 228.133 700.391 228.133 L 677.344 228.133 L 677.344 47.274 L 830.859 240.242 L 848.828 236.336 L 848.828 14.07 L 880.078 14.07 L 880.078 3.914 L 800 3.914 Z" id="3" fill="white" />
	<path d="M 1110.156 240.242 L 1110.156 166.414 L 1100.781 166.414 A 120.52 120.52 0 0 1 1087.387 196.135 Q 1066.472 228.658 1026.828 231.068 A 105.922 105.922 0 0 1 1021.094 231.258 A 76.685 76.685 0 0 1 991.259 225.748 Q 964.288 214.467 951.953 180.086 A 144.642 144.642 0 0 1 945.286 153.3 Q 942.969 138.359 942.969 121.102 A 206.556 206.556 0 0 1 945.643 86.553 Q 948.741 68.348 955.426 54.324 A 77.393 77.393 0 0 1 983.203 21.883 Q 1000.781 10.945 1022.266 10.945 A 80.05 80.05 0 0 1 1054.49 17.16 Q 1079.126 27.871 1092.969 57.039 Q 1096.875 65.242 1099.609 73.836 L 1108.984 73.836 L 1107.813 1.961 Q 1103.485 1.961 1100.842 3.348 A 7.213 7.213 0 0 0 1097.266 7.43 A 27.701 27.701 0 0 0 1096.726 10.333 Q 1096.094 14.919 1096.094 22.664 A 47.287 47.287 0 0 0 1086.675 15.538 Q 1075.58 8.974 1057.422 4.305 Q 1039.453 0.008 1020.703 0.008 A 132.766 132.766 0 0 0 980.076 5.911 A 104.167 104.167 0 0 0 926.172 45.711 A 126.052 126.052 0 0 0 903.583 115.735 A 154.205 154.205 0 0 0 903.516 120.32 A 136.617 136.617 0 0 0 910.468 164.689 A 117.634 117.634 0 0 0 935.156 206.258 A 111.715 111.715 0 0 0 1011.107 241.766 A 152.282 152.282 0 0 0 1022.656 242.195 A 146.987 146.987 0 0 0 1095.234 221.967 A 174.218 174.218 0 0 0 1098.047 220.32 A 89.292 89.292 0 0 0 1098.212 225.978 Q 1098.926 237.166 1102.734 239.07 A 12.293 12.293 0 0 0 1104.952 239.761 Q 1107.153 240.242 1110.156 240.242 Z" id="4" fill="white" />
	<path d="M 1317.578 74.227 L 1325.391 74.227 L 1323.438 3.914 L 1143.359 3.914 L 1143.359 14.07 L 1174.609 14.07 L 1174.609 228.133 L 1143.359 228.133 L 1143.359 238.289 L 1323.438 238.289 L 1325.391 167.977 L 1317.578 167.977 L 1312.109 186.336 A 112.863 112.863 0 0 1 1306.641 201.277 Q 1299.104 217.809 1287.936 224.052 A 29.504 29.504 0 0 1 1283.203 226.18 Q 1277.344 228.133 1270.703 228.133 L 1208.203 228.133 L 1208.203 123.055 L 1288.672 123.055 L 1288.672 111.727 L 1208.203 111.727 L 1208.203 14.07 L 1270.703 14.07 Q 1295.73 14.07 1308.075 44.072 A 103.688 103.688 0 0 1 1310.938 51.961 A 86.372 86.372 0 0 1 1311.304 53.084 Q 1311.782 54.588 1312.069 55.71 A 28.487 28.487 0 0 1 1312.109 55.867 L 1317.578 74.227 Z" id="5" fill="white" />
	<path d="M 1360.547 238.289 L 1456.25 238.289 L 1456.25 228.133 L 1425.391 228.133 L 1425.391 130.867 L 1462.5 130.867 L 1525 238.289 L 1583.984 238.289 A 24.033 24.033 0 0 0 1583.791 235.104 Q 1583.032 229.457 1579.297 228.524 A 18.202 18.202 0 0 0 1577.581 228.271 Q 1576.738 228.185 1575.788 228.152 A 34.751 34.751 0 0 0 1574.609 228.133 L 1559.766 228.133 L 1496.875 127.352 Q 1533.984 118.367 1547.656 88.68 A 59.655 59.655 0 0 0 1552.715 66.364 A 57.595 57.595 0 0 0 1552.734 64.852 A 53.118 53.118 0 0 0 1534.658 23.756 A 71.432 71.432 0 0 0 1527.344 17.977 A 79.444 79.444 0 0 0 1497.859 5.933 A 111.018 111.018 0 0 0 1476.172 3.914 L 1360.547 3.914 L 1360.547 14.07 L 1391.797 14.07 L 1391.797 228.133 L 1360.547 228.133 L 1360.547 238.289 Z M 1425.391 14.07 L 1464.453 14.07 A 63.577 63.577 0 0 1 1482.789 16.544 A 44.269 44.269 0 0 1 1510.937 41.414 A 57.606 57.606 0 0 1 1516.016 65.242 A 64.849 64.849 0 0 1 1513.382 84.211 A 49.621 49.621 0 0 1 1496.484 108.992 Q 1483.203 119.539 1465.625 119.539 L 1425.391 119.539 L 1425.391 14.07 Z" id="6" fill="white" />
</svg>
