<?xml version="1.0" encoding="UTF-8" standalone="no"?>
<!-- Created with Inkscape (http://www.inkscape.org/) -->

<svg
   version="1.1"
   id="svg2"
   width="4000"
   height="2400"
   viewBox="0 0 4000 2400"
   sodipodi:docname="Vector_Star_Shapes_Set.eps"
   xmlns:inkscape="http://www.inkscape.org/namespaces/inkscape"
   xmlns:sodipodi="http://sodipodi.sourceforge.net/DTD/sodipodi-0.dtd"
   xmlns="http://www.w3.org/2000/svg"
   xmlns:svg="http://www.w3.org/2000/svg">
  <defs
     id="defs6" />
  <sodipodi:namedview
     id="namedview4"
     pagecolor="#ffffff"
     bordercolor="#000000"
     borderopacity="0.25"
     inkscape:showpageshadow="2"
     inkscape:pageopacity="0.0"
     inkscape:pagecheckerboard="0"
     inkscape:deskcolor="#d1d1d1" />
  <g
     id="g8"
     inkscape:groupmode="layer"
     inkscape:label="ink_ext_XXXXXX"
     transform="matrix(1.3333333,0,0,-1.3333333,0,2400)">
    <g
       id="g10"
       transform="scale(0.1)">
      <path
         d="M 30000,0 H 0 V 18000 H 30000 V 0"
         style="fill:#ffffff;fill-opacity:1;fill-rule:nonzero;stroke:none"
         id="path12" />
      <path
         d="m 10229.9,8854.04 c -929.25,-191.32 -1684.69,-295.08 -1687.27,-231.75 -2.58,63.32 748.68,269.74 1677.97,461.05 929.3,191.32 1684.7,295.08 1687.3,231.77 2.6,-63.32 -748.7,-269.74 -1678,-461.07"
         style="fill:#050505;fill-opacity:1;fill-rule:nonzero;stroke:none"
         id="path14" />
      <path
         d="m 10112.9,8945.56 c -38.6,948 -19.6,1726.84 42.5,1739.64 62,12.8 143.7,-745.37 182.3,-1693.37 38.6,-947.99 19.6,-1726.83 -42.5,-1739.63 -62.1,-12.8 -143.7,745.3 -182.3,1693.36"
         style="fill:#050505;fill-opacity:1;fill-rule:nonzero;stroke:none"
         id="path16" />
      <path
         d="m 10146.1,8885.62 c -783.68,534.78 -1383.57,1005.5 -1339.86,1051.39 43.71,45.89 714.47,-350.45 1498.16,-885.23 783.7,-534.8 1383.6,-1005.52 1339.9,-1051.4 -43.7,-45.88 -714.5,350.45 -1498.2,885.24"
         style="fill:#050505;fill-opacity:1;fill-rule:nonzero;stroke:none"
         id="path18" />
      <path
         d="m 10130.5,9033.37 c 654.4,686.98 1227.4,1214.93 1279.7,1179.23 52.3,-35.7 -435.7,-621.6 -1090.1,-1308.58 C 9665.64,8217.04 9092.7,7689.1 9040.35,7724.8 c -52.34,35.7 435.73,621.59 1090.15,1308.57"
         style="fill:#050505;fill-opacity:1;fill-rule:nonzero;stroke:none"
         id="path20" />
      <path
         d="m 20683.8,8833.54 c 887.9,887.82 1547.1,1668.06 1472.4,1742.76 -74.6,74.6 -854.9,-584.61 -1742.7,-1472.44 -887.8,-887.83 -1547.1,-1668.06 -1472.4,-1742.76 74.6,-74.6 854.9,584.6 1742.7,1472.44"
         style="fill:#050505;fill-opacity:1;fill-rule:nonzero;stroke:none"
         id="path22" />
      <path
         d="m 20413.5,8833.54 c 887.8,-887.84 1668.1,-1547.04 1742.7,-1472.44 74.7,74.7 -584.5,854.93 -1472.4,1742.76 -887.8,887.83 -1668.1,1547.04 -1742.7,1472.44 -74.7,-74.7 584.6,-854.94 1472.4,-1742.76"
         style="fill:#050505;fill-opacity:1;fill-rule:nonzero;stroke:none"
         id="path24" />
      <path
         d="m 10225.3,3209.9 c 1078.4,0 1952.7,73.5 1952.7,164.2 0,90.6 -874.3,164.1 -1952.7,164.1 -1078.48,0 -1952.75,-73.5 -1952.75,-164.1 0,-90.7 874.27,-164.2 1952.75,-164.2"
         style="fill:#050505;fill-opacity:1;fill-rule:nonzero;stroke:none"
         id="path26" />
      <path
         d="m 10061.1,3374.1 c 0,-1078.5 73.5,-1952.8 164.2,-1952.8 90.7,0 164.2,874.3 164.2,1952.8 0,1078.4 -73.5,1952.7 -164.2,1952.7 -90.7,0 -164.2,-874.3 -164.2,-1952.7"
         style="fill:#050505;fill-opacity:1;fill-rule:nonzero;stroke:none"
         id="path28" />
      <path
         d="m 25777.3,14876.4 c 755.1,755.1 1315.7,1418.7 1252.2,1482.2 -63.5,63.5 -727,-497.2 -1482.1,-1252.2 -755.1,-755.1 -1315.7,-1418.7 -1252.2,-1482.2 63.5,-63.5 727,497.2 1482.1,1252.2"
         style="fill:#050505;fill-opacity:1;fill-rule:nonzero;stroke:none"
         id="path30" />
      <path
         d="m 25662.4,14828.8 c 1067.8,0 1933.4,72.8 1933.4,162.6 0,89.8 -865.6,162.6 -1933.4,162.6 -1067.9,0 -1933.5,-72.8 -1933.5,-162.6 0,-89.8 865.6,-162.6 1933.5,-162.6"
         style="fill:#050505;fill-opacity:1;fill-rule:nonzero;stroke:none"
         id="path32" />
      <path
         d="m 25547.4,14876.4 c 755.1,-755 1418.6,-1315.7 1482.1,-1252.2 63.5,63.5 -497.1,727.1 -1252.2,1482.2 -755.1,755 -1418.6,1315.7 -1482.1,1252.2 -63.5,-63.5 497.1,-727.1 1252.2,-1482.2"
         style="fill:#050505;fill-opacity:1;fill-rule:nonzero;stroke:none"
         id="path34" />
      <path
         d="m 25499.8,14991.4 c 0,-1067.8 72.8,-1933.5 162.6,-1933.5 89.7,0 162.5,865.7 162.5,1933.5 0,1067.8 -72.8,1933.5 -162.5,1933.5 -89.8,0 -162.6,-865.7 -162.6,-1933.5"
         style="fill:#050505;fill-opacity:1;fill-rule:nonzero;stroke:none"
         id="path36" />
      <path
         d="m 25662.4,5426.1 c 0,-1679.4 189.7,-2026.4 783.5,-1432.7 -593.8,-593.7 -246.7,-783.5 1432.6,-783.5 -1679.3,0 -2026.4,-189.8 -1432.6,-783.6 -593.8,593.8 -783.5,246.7 -783.5,-1432.601 0,1679.301 -189.9,2026.401 -783.6,1432.601 593.7,593.8 246.7,783.6 -1432.6,783.6 1679.3,0 2026.3,189.8 1432.6,783.5 593.7,-593.7 783.6,-246.7 783.6,1432.7"
         style="fill:#050505;fill-opacity:1;fill-rule:nonzero;stroke:none"
         id="path38" />
      <path
         d="m 15390.9,5664.6 c 0,-2549.2 -23.6,-2495.6 613.7,-1391.8 -637.3,-1103.8 -695.4,-1110.1 1512.2,164.4 -2207.6,-1274.5 -2173.1,-1227.3 -898.5,-1227.3 -1274.6,0 -1309.1,47.2 898.5,-1227.4 -2207.6,1274.6 -2149.5,1268.3 -1512.2,164.4 -637.3,1103.9 -613.7,1157.4 -613.7,-1391.798 0,2549.198 23.6,2495.698 -613.7,1391.798 637.3,1103.9 695.5,1110.2 -1512.2,-164.4 2207.7,1274.6 2173.1,1227.4 898.5,1227.4 1274.6,0 1309.2,-47.2 -898.5,1227.3 2207.7,-1274.5 2149.5,-1268.2 1512.2,-164.4 637.3,-1103.8 613.7,-1157.4 613.7,1391.8"
         style="fill:#050505;fill-opacity:1;fill-rule:nonzero;stroke:none"
         id="path40" />
      <path
         d="m 4619.14,10938.7 c 0,-1877.18 14.34,-1925.86 304.37,-1033.24 -290.03,-892.62 -249.81,-861.67 853.54,656.94 C 4673.7,9043.79 4656.68,8995.98 5416,9547.65 c -759.32,-551.67 -708.58,-550.27 1076.67,29.8 -1785.25,-580.07 -1827.12,-608.76 -888.56,-608.76 -938.56,0 -896.69,-28.68 888.56,-608.74 C 4707.42,8940.01 4656.68,8941.42 5416,8389.74 4656.68,8941.42 4673.7,8893.6 5777.05,7375 4673.7,8893.6 4633.48,8924.55 4923.51,8031.92 c -290.03,892.63 -304.37,843.95 -304.37,-1033.22 0,1877.17 -14.35,1925.85 -304.38,1033.22 290.03,892.63 249.82,861.68 -853.53,-656.92 1103.35,1518.6 1120.36,1566.42 361.05,1014.74 759.31,551.68 708.57,550.27 -1076.68,-29.79 1785.25,580.06 1827.12,608.74 888.56,608.74 938.56,0 896.69,28.69 -888.56,608.76 1785.25,-580.07 1835.99,-581.47 1076.68,-29.8 759.31,-551.67 742.3,-503.86 -361.05,1014.75 1103.35,-1518.61 1143.56,-1549.56 853.53,-656.94 290.03,-892.62 304.38,-843.94 304.38,1033.24"
         style="fill:#050505;fill-opacity:1;fill-rule:nonzero;stroke:none"
         id="path42" />
      <path
         d="M 6676.82,3374.1 C 4774.01,3288.5 4704.67,3219.2 4619.14,1316.4 4533.6,3219.2 4464.26,3288.5 2561.45,3374.1 c 1902.81,85.5 1972.15,154.8 2057.69,2057.6 85.53,-1902.8 154.87,-1972.1 2057.68,-2057.6"
         style="fill:#050505;fill-opacity:1;fill-rule:nonzero;stroke:none"
         id="path44" />
      <path
         d="m 26653.5,10892.1 c -868.7,-1504.54 -1113.6,-1504.54 -1982.3,0 868.7,-1504.54 746.2,-1716.71 -991.1,-1716.71 1737.3,0 1859.8,-212.17 991.1,-1716.69 868.7,1504.52 1113.6,1504.52 1982.3,0 -868.7,1504.52 -746.2,1716.69 991.1,1716.69 -1737.3,0 -1859.8,212.17 -991.1,1716.71"
         style="fill:#050505;fill-opacity:1;fill-rule:nonzero;stroke:none"
         id="path46" />
      <path
         d="m 22460,4972.2 c -1577.4,-1577.3 -1947.3,-1577.3 -3524.7,0 1577.4,-1577.3 1577.4,-1947.3 0,-3524.7 1577.4,1577.4 1947.3,1577.4 3524.7,0 -1577.4,1577.4 -1577.4,1947.4 0,3524.7"
         style="fill:#050505;fill-opacity:1;fill-rule:nonzero;stroke:none"
         id="path48" />
      <path
         d="m 16102,10892.1 c -600.1,-1448.79 -822,-1448.79 -1422.1,0 600.1,-1448.79 443.1,-1605.73 -1005.6,-1005.64 1448.7,-600.09 1448.7,-822.05 0,-1422.13 1448.7,600.08 1605.7,443.14 1005.6,-1005.63 600.1,1448.77 822,1448.77 1422.1,0 -600.1,1448.77 -443.2,1605.71 1005.6,1005.63 -1448.8,600.08 -1448.8,822.04 0,1422.13 -1448.8,-600.09 -1605.7,-443.15 -1005.6,1005.64"
         style="fill:#050505;fill-opacity:1;fill-rule:nonzero;stroke:none"
         id="path50" />
      <path
         d="m 21066.7,16924.9 c -454,-1694.5 -582.1,-1694.5 -1036.1,0 454,-1694.5 343.1,-1758.6 -897.4,-518.1 1240.5,-1240.5 1176.5,-1351.4 -518,-897.3 1694.5,-454.1 1694.5,-582.1 0,-1036.2 1694.5,454.1 1758.5,343.2 518,-897.3 1240.5,1240.5 1351.4,1176.4 897.4,-518.1 454,1694.5 582.1,1694.5 1036.1,0 -454,1694.5 -343.1,1758.6 897.4,518.1 -1240.5,1240.5 -1176.5,1351.4 518,897.3 -1694.5,454.1 -1694.5,582.1 0,1036.2 -1694.5,-454.1 -1758.5,-343.2 -518,897.3 -1240.5,-1240.5 -1351.4,-1176.4 -897.4,518.1"
         style="fill:#050505;fill-opacity:1;fill-rule:nonzero;stroke:none"
         id="path52" />
      <path
         d="m 4619.14,13869.3 1137.21,-597.9 -217.18,1266.3 920.02,896.8 -1271.45,184.8 -568.6,1152.1 -568.61,-1152.1 -1271.45,-184.8 920.03,-896.8 -217.2,-1266.3 1137.23,597.9"
         style="fill:#050505;fill-opacity:1;fill-rule:nonzero;stroke:none"
         id="path54" />
      <path
         d="m 9825.62,15872.3 335.38,1052.6 404.5,-1028 981.5,507.2 -440.9,-1013 1052.7,-335.4 -1028.1,-404.6 507.2,-981.4 -1013,440.9 -335.3,-1052.7 -404.58,1028 -981.46,-507.1 440.86,1012.9 -1052.63,335.4 1028.03,404.6 -507.2,981.4 1013,-440.8"
         style="fill:#050505;fill-opacity:1;fill-rule:nonzero;stroke:none"
         id="path56" />
      <path
         d="m 15390.9,15992.3 518.1,932.6 -17.7,-1066.7 915,548.6 -548.6,-915 1066.7,17.7 -932.6,-518.1 932.6,-518.1 -1066.7,17.7 548.6,-915 -915,548.6 17.7,-1066.7 -518.1,932.7 -518,-932.7 17.6,1066.7 -915,-548.6 548.7,915 -1066.8,-17.7 932.7,518.1 -932.7,518.1 1066.8,-17.7 -548.7,915 915,-548.6 -17.6,1066.7 518,-932.6"
         style="fill:#050505;fill-opacity:1;fill-rule:nonzero;stroke:none"
         id="path58" />
    </g>
  </g>
</svg>
